<?xml version="1.0" encoding="UTF-8"?>
<svg width="48px" height="48px" viewBox="0 0 48 48" version="1.1" xmlns="http://www.w3.org/2000/svg" xmlns:xlink="http://www.w3.org/1999/xlink">
    <!-- Generator: Sketch 61.1 (89650) - https://sketch.com -->
    <title>Chat</title>
    <desc>Created with Sketch.</desc>
    <g id="Page-1" stroke="none" stroke-width="1" fill="none" fill-rule="evenodd">
        <g id="Chat">
            <path d="M15.4084883,46.0195021 C15.405018,46.0205516 15.4020618,46.0215639 15.3996095,46.0225137 C15.4066784,46.0197757 15.4143337,46.0166062 15.4225598,46.013001 Z M15.6294159,45.8998028 C15.6453243,45.8899464 15.6618045,45.8795366 15.6788359,45.868568 C16.0213268,45.6479945 16.4704302,45.2767425 17.0072548,44.7596623 C18.1738024,43.6360204 19.6770365,41.9015252 21.498132,39.5695139 L22.0986711,38.8004911 L46,38.8 L46,2 L2,2 L2,38.8 C2,38.8 2,38.8 2.00018352,38.8 L10.1851585,38.8007511 L10.7760406,39.7152668 C12.2732847,42.0325707 13.5322637,43.7527853 14.5320192,44.8594557 C14.9711514,45.3455493 15.3434825,45.6939043 15.6294159,45.8998028 Z" id="Combined-Shape" stroke="#484848" stroke-width="4"></path>
            <rect id="Rectangle" fill="#484848" x="7.2" y="12" width="33.6" height="4.8" rx="2"></rect>
            <rect id="Rectangle-Copy-11" fill="#484848" x="7.2" y="21.6" width="16.8" height="4.8" rx="2"></rect>
        </g>
    </g>
</svg>