<?xml version="1.0" encoding="UTF-8"?>
<svg width="48px" height="46px" viewBox="0 0 48 46" version="1.1" xmlns="http://www.w3.org/2000/svg" xmlns:xlink="http://www.w3.org/1999/xlink">
    <!-- Generator: Sketch 61.1 (89650) - https://sketch.com -->
    <title>Heart Empty</title>
    <desc>Created with Sketch.</desc>
    <g id="Page-1" stroke="none" stroke-width="1" fill="none" fill-rule="evenodd">
        <g id="Heart-Empty" stroke="#484848" stroke-width="4">
            <path d="M5.10070176,23.5236707 C5.10080035,23.5236988 5.10100214,23.5238669 5.10135311,23.5242301 L23.9909414,43.069718 C23.9909414,43.069718 23.9909414,43.069718 23.9909189,43.0697417 L41.5556914,24.6647609 L41.6713436,24.552947 C42.1993062,24.0820797 42.6878958,23.570464 43.1319491,23.0234864 L43.2343452,22.9069062 L43.316126,22.8207876 L43.3734136,22.7179457 L43.4535375,22.6107497 C45.1002669,20.4076258 46,17.7573235 46,14.9700321 C46,7.81594158 40.0664596,2 32.7272727,2 C30.4757436,2 27.9993321,3.51042578 25.4816544,6.28592567 L24.0005004,7.91875689 L22.5191408,6.28611221 C20.0005404,3.51029771 17.5242068,2 15.2727273,2 C7.93354038,2 2,7.81594158 2,14.9700321 C2,17.8811079 2.98190085,20.6425082 4.76617405,22.8979488 L4.99054178,23.1815646 L5.10070176,23.5236707 Z" id="Combined-Shape-Copy"></path>
        </g>
    </g>
</svg>