<?xml version="1.0" encoding="UTF-8"?>
<svg xmlns="http://www.w3.org/2000/svg" x="0px" y="0px"
                    width="200" height="200"
                    viewBox="0 0 226 226"
                    style=" fill:#000000;"><g fill="none" fill-rule="nonzero" stroke="none" stroke-width="1" stroke-linecap="butt" stroke-linejoin="miter" stroke-miterlimit="10" stroke-dasharray="" stroke-dashoffset="0" font-family="none" font-weight="none" font-size="none" text-anchor="none" style="mix-blend-mode: normal"><path d="M0,226v-226h226v226z" fill="none"></path><g fill="#ffffff"><path d="M98.875,49.4375c-34.92627,0 -63.5625,28.63623 -63.5625,63.5625v38.84375c-18.4563,-4.99341 -29.79492,-9.93164 -29.79492,-9.93164l-5.73828,12.80078c0,0 49.6582,21.84961 113.2207,21.84961c63.5625,0 111.89648,-21.84961 111.89648,-21.84961l-5.73828,-12.80078c0,0 -10.78687,4.8003 -28.4707,9.71094v-38.62305c0,-34.92627 -28.63623,-63.5625 -63.5625,-63.5625zM98.875,63.5625h28.25c27.22925,0 49.4375,22.20825 49.4375,49.4375v7.72461c-16.44238,3.47608 -41.32666,6.40039 -63.5625,6.40039c-22.04273,0 -46.98218,-2.95191 -63.5625,-6.40039v-7.72461c0,-27.22925 22.20825,-49.4375 49.4375,-49.4375zM49.4375,135.07031c17.73902,3.47608 41.54737,6.17969 63.5625,6.17969c22.20825,0 45.93384,-2.67602 63.5625,-6.17969v20.08398c-17.5459,3.97266 -39.22998,7.2832 -63.5625,7.2832c-24.08423,0 -45.85107,-3.14502 -63.5625,-7.0625z"></path></g></g>
                </svg>